<?xml version="1.0" standalone="no"?>
<!DOCTYPE svg PUBLIC "-//W3C//DTD SVG 20010904//EN"
 "http://www.w3.org/TR/2001/REC-SVG-20010904/DTD/svg10.dtd">
<svg version="1.0" xmlns="http://www.w3.org/2000/svg"
 width="512.000000pt" height="512.000000pt" viewBox="0 0 512.000000 512.000000"
 preserveAspectRatio="xMidYMid meet">
<metadata>
Created by potrace 1.11, written by Peter Selinger 2001-2013
</metadata>
<g transform="translate(0.000000,512.000000) scale(0.100000,-0.100000)"
fill="#000000" stroke="none">
<path d="M2385 5030 c-424 -31 -829 -169 -1185 -404 -368 -243 -657 -569 -854
-966 -84 -170 -135 -306 -181 -485 -59 -230 -70 -329 -70 -625 0 -285 13 -394
72 -620 228 -880 935 -1574 1818 -1783 175 -42 297 -57 496 -64 588 -19 1110
145 1579 496 307 230 556 532 730 886 114 231 177 425 221 680 30 170 38 549
15 725 -101 769 -535 1429 -1199 1822 -429 254 -944 375 -1442 338z m1918
-2439 c163 -286 297 -522 297 -525 0 -3 -270 -6 -601 -6 -330 0 -599 4 -597 9
8 22 594 1040 598 1040 3 1 139 -233 303 -518z m-3048 474 c179 -46 316 -172
376 -345 31 -89 31 -239 0 -324 -115 -320 -462 -453 -764 -294 -71 38 -175
146 -210 219 -101 209 -63 441 98 604 129 130 324 185 500 140z m2005 -515 l0
-110 -640 0 -640 0 0 110 0 110 640 0 640 0 0 -110z"/>
<path d="M3893 2472 l-102 -177 105 -3 c57 -1 151 -1 209 0 l105 3 -100 175
c-55 96 -103 176 -107 177 -5 2 -54 -77 -110 -175z"/>
<path d="M1070 2831 c-60 -14 -88 -29 -134 -71 -61 -56 -89 -118 -89 -201 -3
-211 219 -345 412 -248 98 49 151 136 151 249 0 76 -21 129 -74 188 -60 66
-178 103 -266 83z"/>
</g>
</svg>
